<?xml version="1.0" standalone="no"?>
<!DOCTYPE svg PUBLIC "-//W3C//DTD SVG 1.1//EN" "http://www.w3.org/Graphics/SVG/1.1/DTD/svg11.dtd">
<svg width="100%" height="100%" viewBox="0 0 800 800" version="1.1" xmlns="http://www.w3.org/2000/svg" xmlns:xlink="http://www.w3.org/1999/xlink" xml:space="preserve" style="fill-rule:evenodd;clip-rule:evenodd;stroke-linecap:round;stroke-linejoin:round;stroke-miterlimit:1.41421;">
    <g transform="matrix(1,0,0,1,-193.088,-25.5018)">
        <path d="M588.666,426.915C592.027,426.021 595.042,424.059 598.374,422.963C602.933,421.464 607.648,421.255 612.324,420.556C615.252,420.119 618.538,418.358 621.358,418.358" style="fill:none;stroke-width:3px;stroke:black;"/>
    </g>
    <g transform="matrix(1,0,0,1,-193.088,-25.5018)">
        <path d="M639.883,414.651C642.243,414.469 645.406,414.488 647.723,413.508C648.745,413.076 651.022,411.985 651.926,411.985" style="fill:none;stroke-width:3px;stroke:black;"/>
    </g>
    <g transform="matrix(1,0,0,1,-193.088,-25.5018)">
        <path d="M670.721,407.949C672.035,407.949 673.323,407.386 674.362,407.386" style="fill:none;stroke-width:3px;stroke:black;"/>
    </g>
    <g transform="matrix(1,0,0,1,-193.088,-25.5018)">
        <path d="M681.275,395.877C676.206,395.877 671.059,396.678 666.261,398.388C663.189,399.482 660.29,401.128 657.154,402.014C652.538,403.318 647.694,403.39 642.941,403.833C642.124,403.909 641.294,404.077 640.489,404.237C638.488,404.634 635.137,404.975 633.704,406.387C633.528,406.56 632.355,406.674 632.355,406.949" style="fill:none;stroke-width:3px;stroke:black;"/>
    </g>
    <g transform="matrix(1,0,0,1,-193.088,-25.5018)">
        <path d="M615.018,410.839C613.708,410.839 612.397,410.839 611.086,410.839C609.08,410.839 606.029,410.454 604.114,411.107C603.836,411.202 602.775,412.155 602.296,411.655C601.913,411.256 602.103,410.24 602.053,409.746C601.799,407.21 602.186,405.42 603.428,403.184C603.878,402.373 604.749,400.527 606.03,401.058C606.713,401.341 607.181,403.014 607.488,403.626C607.957,404.564 608.337,405.495 608.728,406.47C609.34,407.999 609.243,409.501 609.243,411.114" style="fill:none;stroke-width:3px;stroke:black;"/>
    </g>
    <g transform="matrix(1,0,0,1,-193.088,-25.5018)">
        <path d="M605.691,400.221C611.434,397.915 617.818,396.768 623.945,395.925C627.03,395.501 629.901,393.638 633.039,393.302C639.68,392.59 646.29,391.299 653.002,391.299C656.78,391.299 660.23,389.998 663.802,388.919C665.394,388.439 667.189,388.497 668.806,388.033C670.518,387.542 672.392,387.24 674.062,386.658C674.574,386.479 675.294,386.527 675.878,386.429C676.026,386.404 676.665,386.429 676.606,386.429" style="fill:none;stroke-width:3px;stroke:black;"/>
    </g>
    <g transform="matrix(1,0,0,1,-193.088,-25.5018)">
        <path d="M405.922,443.478C410.624,443.478 415.048,440.654 419.695,439.87C426.121,438.786 433.011,437.937 439.243,436.358C441.439,435.801 448.744,433.909 450.833,434.953C451.57,435.322 451.454,437.058 451.577,437.707C452.072,440.328 452.074,443.494 453.19,445.726C453.31,445.967 451.915,446.11 451.644,446.217C450.666,446.603 449.431,446.944 448.389,447.159C443.184,448.232 438.162,449.735 433.024,450.794C425.588,452.327 418.137,452.999 410.708,454.843C409.033,455.259 405.191,457.08 404.149,455.689" style="fill:none;stroke-width:3px;stroke:black;"/>
    </g>
    <g transform="matrix(1,0,0,1,-193.088,-25.5018)">
        <path d="M452.246,434.95C460.078,434.95 467.91,433.72 475.443,432.276C477.727,431.838 481.168,430.525 483.072,430.525" style="fill:none;stroke-width:3px;stroke:black;"/>
    </g>
    <g transform="matrix(1,0,0,1,-193.088,-25.5018)">
        <path d="M490.18,424.076L605.566,398.746" style="fill:none;stroke-width:3px;stroke:black;"/>
    </g>
    <g transform="matrix(1,0,0,1,-193.088,-25.5018)">
        <path d="M434.444,470.257L505.375,604.808L823.624,500.331L783.171,473.67" style="fill:none;stroke-width:3px;stroke:black;"/>
    </g>
    <g transform="matrix(1,0,0,1,-193.088,-25.5018)">
        <path d="M761.557,458.622L708.766,424.103" style="fill:none;stroke-width:3px;stroke:black;"/>
    </g>
    <g transform="matrix(1,0,0,1,-193.088,-25.5018)">
        <path d="M384.112,480.848L457.682,657.563L890.022,509.954L888.061,503.653L718.116,404.912L707.973,402.291L694.404,404.349" style="fill:none;stroke-width:3px;stroke:black;"/>
    </g>
    <g transform="matrix(1,0,0,1,-193.088,-25.5018)">
        <path d="M437.372,469.792L467.512,462.611" style="fill:none;stroke-width:3px;stroke:black;"/>
    </g>
    <g transform="matrix(1,0,0,1,-193.088,-25.5018)">
        <path d="M385.935,481.709L392.041,473.851L468.488,454.515" style="fill:none;stroke-width:3px;stroke:black;"/>
    </g>
    <g transform="matrix(1,0,0,1,-193.088,-25.5018)">
        <path d="M482.617,669.386L890.192,524.218L898.012,520.658L901.044,514.428L901.234,506.934L897.763,500.48L726.215,395.607L718.682,394.24L710.304,392.828L698.148,392.678L683.273,396.098L675.128,385.834L683.334,381.524L694.149,376.239L700.138,369.475L702.992,364.017L704.697,356.064L704.12,344.804L671.379,144.512L667.333,133.315L661.548,126.743L653.225,118.5L642.556,115.21L637.61,105.213L633.556,101.176L627.254,99.132L622.103,98.515L616.935,92.672L609.884,100.223L604.105,115.276L597.92,101.409L602.609,93.295L593.442,87.95L596.235,75.995L569.118,75.998L566.04,79.827L560.212,81.206L564.117,94.119L557.717,104.834L557.525,115.586L419.422,122.675L413.571,100.307L406.46,99.896L404.608,124.771L399.799,124.96L394.355,99.991L387.824,100.246L384.706,125.018L379.868,107.341L381.499,94.131L376.466,92.592L375.424,78.518L340.897,78.234L336.28,82.035L342.516,100.315L338.594,107.935L322.947,110.568L322.456,128.311L305.54,132.347L298.118,137.535L292.692,146.855L289.172,157.811L291.219,170.724L349.274,425.179L355.599,436.488L363.627,442.514L373.268,444.638L383.331,446.065L405.056,442.063L406.643,456.539L384.034,465.517L374.115,473.197L367.152,478.502L372.165,483.874L435.365,657.741L440.335,664.339L449.485,668.978L463.289,672.07L472.338,671.109L482.617,669.386Z" style="fill:none;stroke-width:3px;stroke:black;"/>
    </g>
    <g transform="matrix(1,0,0,1,-193.088,-25.5018)">
        <path d="M368.077,479.372L364.767,486.544L429.322,676.348L434.722,686.081L442.841,692.501L453.823,696.824L462.965,697.789L476.803,696.77L494.46,695.176L499.234,703.821L510.919,707.223L520.041,705.799L528.292,700.252" style="fill:none;stroke-width:3px;stroke:black;"/>
    </g>
    <g transform="matrix(1,0,0,1,-193.088,-25.5018)">
        <path d="M902.563,506.01L909.744,515.315L909.744,527.261L905.776,539.342L910.869,546.503L909.847,553.428L904.119,556.56L877.703,630.742L871.277,635.31L863.784,639.768L855.297,641.192L843.156,640.991L836.386,647.402L830.239,680.083L617.357,774.248L610.28,768.026L604.271,753.226L594.59,754.084L583.47,747.969L575.546,741.615L551.68,749.281L550.175,761.388L548.728,769.286L545.805,773.874L533.469,779.071L526.638,772.442L520.207,764.156L489.605,770.621L479.447,769.347L469.129,761.626L463.059,751.09L440.769,692.251" style="fill:none;stroke-width:3px;stroke:black;"/>
    </g>
    <g transform="matrix(1,0,0,1,-193.088,-25.5018)">
        <path d="M620.332,631.956L478.795,683.623L463.272,685.679L454.237,684.1L444.245,679.842L440.088,673.48" style="fill:none;stroke-width:3px;stroke:black;"/>
    </g>
    <g transform="matrix(1,0,0,1,-193.088,-25.5018)">
        <path d="M808.58,565.805L892.764,532.076L899.678,527.169L901.633,515.659" style="fill:none;stroke-width:3px;stroke:black;"/>
    </g>
    <g transform="matrix(1,0,0,1,-193.088,-25.5018)">
        <path d="M809.926,568.242L802.031,596.726L640.527,659.817L621.506,634.537" style="fill:none;stroke-width:3px;stroke:black;"/>
    </g>
    <g transform="matrix(1,0,0,1,-193.088,-25.5018)">
        <path d="M612.313,638.396L628.115,658.665L638.083,655.855" style="fill:none;stroke-width:3px;stroke:black;"/>
    </g>
    <g transform="matrix(1,0,0,1,-193.088,-25.5018)">
        <path d="M811.947,568.351L830.514,582.715L835.86,581.946L839.262,578.857L818.444,562.778" style="fill:none;stroke-width:3px;stroke:black;"/>
    </g>
    <g transform="matrix(1,0,0,1,-193.088,-25.5018)">
        <path d="M828.695,559.639L850.871,574.567L855.42,574.115L857.438,571.532L835.946,554.481" style="fill:none;stroke-width:3px;stroke:black;"/>
    </g>
    <g transform="matrix(1,0,0,1,-193.088,-25.5018)">
        <path d="M871.408,541.16L893.941,558.336L903.459,556.549" style="fill:none;stroke-width:3px;stroke:black;"/>
    </g>
    <g transform="matrix(1,0,0,1,-193.088,-25.5018)">
        <path d="M529.094,698.186L531.407,691.956L536.648,697.179L547.453,692.17L533.34,665.126" style="fill:none;stroke-width:3px;stroke:black;"/>
    </g>
    <g transform="matrix(1,0,0,1,-193.088,-25.5018)">
        <path d="M584.987,645.652L601.729,670.076L612.038,666.048L597.491,641.467" style="fill:none;stroke-width:3px;stroke:black;"/>
    </g>
    <g transform="matrix(1,0,0,1,-193.088,-25.5018)">
        <path d="M537.308,697.031L538.042,764.151L537.121,769.397L534.779,774.009L532.886,776.757" style="fill:none;stroke-width:3px;stroke:black;"/>
    </g>
    <g transform="matrix(1,0,0,1,-193.088,-25.5018)">
        <path d="M893.641,559.097L872.624,629.075L861.703,639.761" style="fill:none;stroke-width:3px;stroke:black;"/>
    </g>
    <g transform="matrix(1,0,0,1,-193.088,-25.5018)">
        <path d="M858.239,573.117L842.56,640.619" style="fill:none;stroke-width:3px;stroke:black;"/>
    </g>
    <g transform="matrix(1,0,0,1,-193.088,-25.5018)">
        <path d="M850.254,574.414L841.27,617.095L840.255,642.693" style="fill:none;stroke-width:3px;stroke:black;"/>
    </g>
    <g transform="matrix(1,0,0,1,-193.088,-25.5018)">
        <path d="M841.902,615.5L835.3,602.636L838.632,579.808" style="fill:none;stroke-width:3px;stroke:black;"/>
    </g>
    <g transform="matrix(1,0,0,1,-193.088,-25.5018)">
        <path d="M830.491,582.595L821.333,620.672L817.217,628.226L813.188,631.067" style="fill:none;stroke-width:3px;stroke:black;"/>
    </g>
    <g transform="matrix(1,0,0,1,-193.088,-25.5018)">
        <path d="M834.918,603.135L826.943,625.104L820.147,633.082L811.572,632.409" style="fill:none;stroke-width:3px;stroke:black;"/>
    </g>
    <g transform="matrix(1,0,0,1,-193.088,-25.5018)">
        <path d="M832.22,614.532L830.063,642.009L826.099,660.129" style="fill:none;stroke-width:3px;stroke:black;"/>
    </g>
    <g transform="matrix(1,0,0,1,-193.088,-25.5018)">
        <path d="M826.099,660.129L829.547,678.63" style="fill:none;stroke-width:3px;stroke:black;"/>
    </g>
    <g transform="matrix(1,0,0,1,-193.088,-25.5018)">
        <path d="M826.322,658.041L812.622,649.685L626.418,728.743" style="fill:none;stroke-width:3px;stroke:black;"/>
    </g>
    <g transform="matrix(1,0,0,1,-193.088,-25.5018)">
        <path d="M623.232,770.825L624.69,748.628L625.335,741.541L622.866,697.47L619.707,690.157L612.958,678.487L612.544,665.369" style="fill:none;stroke-width:3px;stroke:black;"/>
    </g>
    <g transform="matrix(1,0,0,1,-193.088,-25.5018)">
        <path d="M603.682,752.464L607.538,745.957L610.46,738.747L611.883,666.387" style="fill:none;stroke-width:3px;stroke:black;"/>
    </g>
    <g transform="matrix(1,0,0,1,-193.088,-25.5018)">
        <path d="M601.469,670.571L599.015,737.688L596.582,745.044L593.701,749.365L589.343,750.838" style="fill:none;stroke-width:3px;stroke:black;"/>
    </g>
    <g transform="matrix(1,0,0,1,-193.088,-25.5018)">
        <path d="M627.963,658.426L624.666,705.499" style="fill:none;stroke-width:3px;stroke:black;"/>
    </g>
    <g transform="matrix(1,0,0,1,-193.088,-25.5018)">
        <path d="M638.628,657.455L635.729,703.986L634.654,708.727L631.764,711.804L625.683,714.577" style="fill:none;stroke-width:3px;stroke:black;"/>
    </g>
    <g transform="matrix(1,0,0,1,-193.088,-25.5018)">
        <path d="M872.209,542.769L867.817,561.223" style="fill:none;stroke-width:3px;stroke:black;"/>
    </g>
    <g transform="matrix(1,0,0,1,-193.088,-25.5018)">
        <path d="M490.177,680.964L498.504,692.858L505.416,697.187L512.717,697.131L520.59,695.023L531.376,691.786" style="fill:none;stroke-width:3px;stroke:black;"/>
    </g>
    <g transform="matrix(1,0,0,1,-193.088,-25.5018)">
        <path d="M638.781,675.047L694.438,653.308L699.991,648.319L705.115,642.711L713.338,637.286L721.92,635.745L728.778,634.333L737.597,641.314" style="fill:none;stroke-width:3px;stroke:black;"/>
    </g>
    <g transform="matrix(1,0,0,1,-193.088,-25.5018)">
        <path d="M800.634,612.661L739.476,635.068" style="fill:none;stroke-width:3px;stroke:black;"/>
    </g>
    <g transform="matrix(1,0,0,1,-193.088,-25.5018)">
        <path d="M802.084,612.197L802.207,619.53L804.625,625.204L806.776,628.759L810.686,631.783" style="fill:none;stroke-width:3px;stroke:black;"/>
    </g>
    <g transform="matrix(1,0,0,1,-193.088,-25.5018)">
        <path d="M477.005,441.409L538.707,571.313L661.118,534.229L581.385,418.064L477.005,441.409Z" style="fill:none;stroke-width:3px;stroke:black;"/>
    </g>
    <g transform="matrix(1,0,0,1,-193.088,-25.5018)">
        <path d="M641.166,443.398L641.005,437.697L634.398,429.675L648.678,424.949L656.875,433.445" style="fill:none;stroke-width:3px;stroke:black;"/>
    </g>
    <g transform="matrix(1,0,0,1,-193.088,-25.5018)">
        <path d="M636.787,433.423L629.954,435.64L690.311,513.553L755.645,494.209" style="fill:none;stroke-width:3px;stroke:black;"/>
    </g>
    <g transform="matrix(1,0,0,1,-193.088,-25.5018)">
        <path d="M719.104,454.188L732.68,468.147L749.138,462.454L737.426,450.273L719.104,454.188Z" style="fill:none;stroke-width:3px;stroke:black;"/>
    </g>
    <g transform="matrix(1,0,0,1,-193.088,-25.5018)">
        <path d="M728.687,450.533L711.778,436.004L706.564,430.878L707.328,420.735L692.243,402.445L674.696,406.662L689.236,425.955" style="fill:none;stroke-width:3px;stroke:black;"/>
    </g>
    <g transform="matrix(1,0,0,1,-193.088,-25.5018)">
        <path d="M680.078,434.48L681.545,424.966L668.545,406.656L652.374,411.045L665.348,429.696L664.372,438.24" style="fill:none;stroke-width:3px;stroke:black;"/>
    </g>
    <g transform="matrix(1,0,0,1,-193.088,-25.5018)">
        <path d="M652.1,412.366L651.26,426.379" style="fill:none;stroke-width:3px;stroke:black;"/>
    </g>
    <g transform="matrix(1,0,0,1,-193.088,-25.5018)">
        <path d="M670.057,451.347L686.643,473.076L708.771,466.687L697.703,442.6L670.057,451.347Z" style="fill:none;stroke-width:3px;stroke:black;"/>
    </g>
    <g transform="matrix(1,0,0,1,-193.088,-25.5018)">
        <path d="M684.141,495.897L650.243,453.567L653.011,447.521L658.52,450.166L689.119,490.699L684.141,495.897Z" style="fill:none;stroke-width:3px;stroke:black;"/>
    </g>
    <g transform="matrix(1,0,0,1,-193.088,-25.5018)">
        <path d="M695.714,478.434L708.275,473.774L713.212,481.405L702.709,485.978L695.714,478.434Z" style="fill:none;stroke-width:3px;stroke:black;"/>
    </g>
    <g transform="matrix(1,0,0,1,-193.088,-25.5018)">
        <path d="M740.544,482.353L753.167,473.035L757.987,467.361L766.188,465.316L773.64,463.889L786.165,461.72" style="fill:none;stroke-width:3px;stroke:black;"/>
    </g>
    <g transform="matrix(1,0,0,1,-193.088,-25.5018)">
        <path d="M761.73,480.056L769.436,476.377L781.538,472.406L785.316,469.898L790.355,465.915L792.742,461.892" style="fill:none;stroke-width:3px;stroke:black;"/>
    </g>
    <g transform="matrix(1,0,0,1,-193.088,-25.5018)">
        <path d="M635.224,428.195L631.343,426.409L611.413,405.115L625.86,400.19L643.547,421.009L644.772,424.148" style="fill:none;stroke-width:3px;stroke:black;"/>
    </g>
    <g transform="matrix(1,0,0,1,-193.088,-25.5018)">
        <path d="M682.27,536.046L686.94,511.153" style="fill:none;stroke-width:3px;stroke:black;"/>
    </g>
    <g transform="matrix(1,0,0,1,-193.088,-25.5018)">
        <path d="M693.428,513.494L687.191,537.781" style="fill:none;stroke-width:3px;stroke:black;"/>
    </g>
    <g transform="matrix(1,0,0,1,-193.088,-25.5018)">
        <path d="M751.178,495.355L746.942,512.679" style="fill:none;stroke-width:3px;stroke:black;"/>
    </g>
    <g transform="matrix(1,0,0,1,-193.088,-25.5018)">
        <path d="M751.466,513.265L757.215,491.145" style="fill:none;stroke-width:3px;stroke:black;"/>
    </g>
    <g transform="matrix(1,0,0,1,-193.088,-25.5018)">
        <path d="M689.488,507.054L691.301,497.037" style="fill:none;stroke-width:3px;stroke:black;"/>
    </g>
    <g transform="matrix(1,0,0,1,-193.088,-25.5018)">
        <path d="M694.012,508.298L695.729,498.156" style="fill:none;stroke-width:3px;stroke:black;"/>
    </g>
    <g transform="matrix(1,0,0,1,-193.088,-25.5018)">
        <path d="M643.62,456.23L641.525,478.861" style="fill:none;stroke-width:3px;stroke:black;"/>
    </g>
    <g transform="matrix(1,0,0,1,-193.088,-25.5018)">
        <path d="M646.265,476.924L647.883,459.684" style="fill:none;stroke-width:3px;stroke:black;"/>
    </g>
    <g transform="matrix(1,0,0,1,-193.088,-25.5018)">
        <path d="M656.868,441.145L657.244,433.521" style="fill:none;stroke-width:3px;stroke:black;"/>
    </g>
    <g transform="matrix(1,0,0,1,-193.088,-25.5018)">
        <path d="M541.102,563.181L485.809,444.792L579.254,423.738L651.103,530.512L541.102,563.181Z" style="fill:none;stroke-width:3px;stroke:black;"/>
    </g>
    <g transform="matrix(1,0,0,1,-193.088,-25.5018)">
        <path d="M528.325,594.436L528.324,574.943" style="fill:none;stroke-width:3px;stroke:black;"/>
    </g>
    <g transform="matrix(1,0,0,1,-193.088,-25.5018)">
        <path d="M536.459,573.33L536.856,592.769" style="fill:none;stroke-width:3px;stroke:black;"/>
    </g>
    <g transform="matrix(1,0,0,1,-193.088,-25.5018)">
        <path d="M538.949,579.202L656.987,542.354" style="fill:none;stroke-width:3px;stroke:black;"/>
    </g>
    <g transform="matrix(1,0,0,1,-193.088,-25.5018)">
        <path d="M667.633,532.917L666.719,550.75" style="fill:none;stroke-width:3px;stroke:black;"/>
    </g>
    <g transform="matrix(1,0,0,1,-193.088,-25.5018)">
        <path d="M657.891,543.712L657.975,552.843" style="fill:none;stroke-width:3px;stroke:black;"/>
    </g>
    <g transform="matrix(1,0,0,1,-193.088,-25.5018)">
        <path d="M470.53,475.658L470.157,446.133" style="fill:none;stroke-width:3px;stroke:black;"/>
    </g>
    <g transform="matrix(1,0,0,1,-193.088,-25.5018)">
        <path d="M476.395,474.816L476.704,446.59" style="fill:none;stroke-width:3px;stroke:black;"/>
    </g>
    <g transform="matrix(1,0,0,1,-193.088,-25.5018)">
        <path d="M315.15,163.108L370.701,419.226L377.904,424.414L385.658,424.414L681.733,364.038L685.733,360.115L689.058,353.626L653.743,140.289L651.642,135.355L646.638,133.103L636.521,132.823L323.714,151.966L318.377,155.256L315.15,163.108Z" style="fill:none;stroke-width:3px;stroke:black;"/>
    </g>
    <g transform="matrix(1,0,0,1,-193.088,-25.5018)">
        <path d="M333.551,116.687C331.708,117.122 329.177,117.728 328.734,120.037C328.275,122.431 329.944,125.248 332.803,124.039C334.672,123.249 336.581,122.86 337.536,120.941C338.672,118.659 337.301,115.241 334.556,115.924" style="fill:none;stroke-width:3px;stroke:black;"/>
    </g>
    <g transform="matrix(1,0,0,1,-193.088,-25.5018)">
        <path d="M625.454,105.528C624.337,106.333 623.034,107.025 622.83,108.508C622.457,111.218 626.928,112.693 629.178,111.982C630.85,111.453 630.372,107.627 629.971,106.559C629.862,106.268 629.669,105.201 629.361,105.047C628.51,104.621 627.125,104.983 626.196,104.983" style="fill:none;stroke-width:3px;stroke:black;"/>
    </g>
    <g transform="matrix(1,0,0,1,-193.088,-25.5018)">
        <path d="M761.193,464.705C761.825,462.423 762.911,459.102 764.317,457.143C765.038,456.138 766.946,455.869 767.967,455.231C769.321,454.384 770.426,453.24 771.785,452.413C774.079,451.016 778.25,450.899 780.797,451.217C784.407,451.667 788.227,453.386 790.371,456.245C791.235,457.397 792.337,458.697 792.961,459.944C793.051,460.125 793.104,460.959 792.892,460.959" style="fill:none;stroke-width:3px;stroke:black;"/>
    </g>
    <g transform="matrix(1,0,0,1,-193.088,-25.5018)">
        <path d="M786.839,461.996C786.839,460.857 787.227,459.064 786.455,458.037C785.556,456.842 783.267,457.171 782.006,457.171C778.358,457.171 773.661,456.26 770.679,458.791C769.705,459.619 768.741,460.955 767.64,461.597C767.384,461.746 764.957,465.453 764.957,465.698" style="fill:none;stroke-width:3px;stroke:black;"/>
    </g>
    <g transform="matrix(1,0,0,1,-193.088,-25.5018)">
        <path d="M641.445,479.964C641.445,481.785 644.716,481.901 645.958,480.961C646.52,480.535 646.182,477.26 646.388,477.26" style="fill:none;stroke-width:3px;stroke:black;"/>
    </g>
    <g transform="matrix(1,0,0,1,-193.088,-25.5018)">
        <path d="M682.337,537C682.458,537.582 682.54,538.173 682.699,538.745C683.075,540.093 686.524,538.827 686.809,537.966" style="fill:none;stroke-width:3px;stroke:black;"/>
    </g>
    <g transform="matrix(1,0,0,1,-193.088,-25.5018)">
        <path d="M691.604,495.423C691.604,497.257 692.605,498.542 694.35,499.195C695.553,499.645 697.012,499.625 697.306,498.063C697.631,496.335 694.994,495.019 693.696,494.367C693.462,494.249 691.958,494.321 691.958,494.114" style="fill:none;stroke-width:3px;stroke:black;"/>
    </g>
    <g transform="matrix(1,0,0,1,-193.088,-25.5018)">
        <path d="M757.289,490.469C757.762,487.811 753.971,484.002 755.961,481.982C756.099,481.842 757.544,483.51 757.759,483.691C758.533,484.341 760.981,484.698 761.448,483.513C762.38,481.151 759.772,479.968 758.251,478.838C758.219,478.814 746.095,463.902 746.095,464.922" style="fill:none;stroke-width:3px;stroke:black;"/>
    </g>
    <g transform="matrix(1,0,0,1,-193.088,-25.5018)">
        <path d="M689.121,426.539C689.005,427.46 688.92,428.386 688.773,429.303C688.614,430.289 688.166,431.347 687.924,432.311C687.686,433.262 688.233,434.529 687.799,435.393C687.787,435.415 687.401,437.023 687.483,437.045C689.487,437.596 691.825,436.307 693.599,435.615C696.457,434.501 699.149,433.572 702.076,432.83C703.343,432.509 704.798,431.377 705.983,431.377" style="fill:none;stroke-width:3px;stroke:black;"/>
    </g>
    <g transform="matrix(1,0,0,1,-193.088,-25.5018)">
        <path d="M689.977,425.014C693.793,425.014 698.493,425.811 702.264,425.013C703.405,424.772 705.575,423.193 706.485,423.193" style="fill:none;stroke-width:3px;stroke:black;"/>
    </g>
    <g transform="matrix(1,0,0,1,-193.088,-25.5018)">
        <path d="M665.709,438.574C669.642,438.574 675.921,436.037 679.764,435.065" style="fill:none;stroke-width:3px;stroke:black;"/>
    </g>
    <g transform="matrix(1,0,0,1,-193.088,-25.5018)">
        <path d="M666.006,429.508C670.927,429.508 677.938,425.782 681.302,424.715" style="fill:none;stroke-width:3px;stroke:black;"/>
    </g>
    <g transform="matrix(1,0,0,1,-193.088,-25.5018)">
        <path d="M705.646,444.573C706.667,444.656 707.686,444.747 708.707,444.82C709.611,444.884 714.873,445.114 714.873,443.456" style="fill:none;stroke-width:3px;stroke:black;"/>
    </g>
    <g transform="matrix(1,0,0,1,-193.088,-25.5018)">
        <path d="M728.329,483.785C728.329,485.516 728.329,487.248 728.329,488.979C728.329,490.443 728.18,491.753 729.369,492.806C730.098,493.45 730.895,493.938 731.809,494.278C732.372,494.487 732.963,494.575 733.549,494.692C737.551,495.489 736.004,490.749 736.557,488.779C736.843,487.76 738.802,485.473 739.926,485.473" style="fill:none;stroke-width:3px;stroke:black;"/>
    </g>
    <g transform="matrix(1,0,0,1,-193.088,-25.5018)">
        <path d="M716.597,463.371C719.288,465.339 720.827,467.455 722.681,470.282C723.719,471.864 724.662,473.535 725.65,475.149C726.188,476.028 726.862,476.844 727.323,477.766C727.618,478.356 727.959,478.589 728.352,479.08C730.185,481.371 730.606,481.149 733.317,480.064C734.118,479.744 734.906,479.397 735.703,479.067C737.19,478.452 739.036,478.006 740.427,477.3" style="fill:none;stroke-width:3px;stroke:black;"/>
    </g>
    <g transform="matrix(1,0,0,1,-193.088,-25.5018)">
        <path d="M733.358,501.885C732.266,502.041 730.309,502.142 729.053,502.59C724.854,504.086 722.566,507.719 719.143,510.283C715.734,512.836 711.889,514.795 708.556,517.38C706.828,518.721 705.88,521.08 703.789,521.954C703.066,522.256 702.15,522.379 701.387,522.474C700.756,522.552 700.119,522.612 699.489,522.697C698.434,522.84 693.564,523.843 693.306,522.3" style="fill:none;stroke-width:3px;stroke:black;"/>
    </g>
    <g transform="matrix(1,0,0,1,-193.088,-25.5018)">
        <path d="M683.376,525.592C676.703,525.592 670.056,526.375 663.395,526.375C662.927,526.375 662.459,526.375 661.99,526.375C661.712,526.375 657.44,526.279 657.44,526.606" style="fill:none;stroke-width:3px;stroke:black;"/>
    </g>
    <g transform="matrix(1,0,0,1,-193.088,-25.5018)">
        <path d="M678.726,502.277C675.025,502.277 671.37,503.199 668.119,504.999C665.884,506.238 664.008,508.367 661.601,509.264C659.738,509.959 657.803,510.156 655.892,510.631C653.945,511.115 651.953,511.412 649.993,511.898C649.714,511.968 648.496,512.463 648.496,512.717" style="fill:none;stroke-width:3px;stroke:black;"/>
    </g>
    <g transform="matrix(1,0,0,1,-193.088,-25.5018)">
        <path d="M644.362,506.79C647.086,506.406 651.117,506.173 653.69,505.011C656.46,503.761 658.026,501.462 660.327,499.721C662.261,498.256 664.553,497.373 666.711,496.267C668.381,495.411 670.468,495.197 671.968,494.199C672.164,494.069 673.244,493.701 673.244,493.5" style="fill:none;stroke-width:3px;stroke:black;"/>
    </g>
    <g transform="matrix(1,0,0,1,-193.088,-25.5018)">
        <path d="M502.472,500.054C497.154,500.054 494.447,497.399 490.055,494.634C487.668,493.131 484.812,492.65 482.305,491.254C481.191,490.635 477.512,488.979 477.07,487.567C476.558,485.932 477.176,483.98 476.754,482.303C476.145,479.881 475.327,477.022 477.228,475.092" style="fill:none;stroke-width:3px;stroke:black;"/>
    </g>
    <g transform="matrix(1,0,0,1,-193.088,-25.5018)">
        <path d="M470.411,476.449C470.411,479.819 469.768,482.929 469.768,486.356C469.768,486.952 469.432,489.317 469.824,489.691C471.546,491.33 474.35,492.169 476.223,490.267C476.876,489.604 476.839,487.193 477.158,486.231" style="fill:none;stroke-width:3px;stroke:black;"/>
    </g>
    <g transform="matrix(1,0,0,1,-193.088,-25.5018)">
        <path d="M471.568,444.895C471.568,443.935 470.939,440.307 471.786,439.744C473.134,438.847 479.681,436.876 479.681,439.917" style="fill:none;stroke-width:3px;stroke:black;"/>
    </g>
    <g transform="matrix(1,0,0,1,-193.088,-25.5018)">
        <path d="M498.284,434.926C502.471,432.483 507.053,427.619 503.73,422.838C503.237,422.129 502.686,421.079 501.872,420.67C500.45,419.956 498.324,419.898 496.777,419.592C495.241,419.288 493.727,418.664 492.114,418.931C489.481,419.368 489.018,422.855 487.589,424.278" style="fill:none;stroke-width:3px;stroke:black;"/>
    </g>
    <g transform="matrix(1,0,0,1,-193.088,-25.5018)">
        <path d="M501.549,496.692C496.498,492.799 490.013,491.942 484.894,487.878C483.137,486.484 481.47,482.295 480.789,480.331C480.376,479.138 480.789,477.086 480.789,475.818C480.789,473.783 480.456,471.405 480.789,469.395C481.187,467 481.882,465.082 481.882,462.574C481.882,460.925 481.483,458.768 481.882,457.161C482.033,456.553 482.294,456.034 482.294,455.356C482.294,455.021 482.563,454.152 482.294,454.352C482.119,454.481 481.633,455.099 481.606,455.132" style="fill:none;stroke-width:3px;stroke:black;"/>
    </g>
    <g transform="matrix(1,0,0,1,-193.088,-25.5018)">
        <path d="M480.609,438.546C481.809,435.434 483.025,432.367 484.375,429.366C484.866,428.273 485.367,427.12 486.106,426.184C486.24,426.014 487.265,424.745 487.105,424.745" style="fill:none;stroke-width:3px;stroke:black;"/>
    </g>
    <g transform="matrix(1,0,0,1,-193.088,-25.5018)">
        <path d="M520.804,681.015C520.59,683.52 518.331,684.197 516.093,684.197C515.011,684.197 513.745,684.377 512.676,684.197C510.277,683.794 507.617,680.826 508.25,678.276C508.436,677.525 509.795,676.884 510.343,676.489C513.403,674.286 516.76,674.361 519.689,676.683C520.084,676.996 521.99,680.248 521.209,680.636" style="fill:none;stroke-width:3px;stroke:black;"/>
    </g>
    <g transform="matrix(1,0,0,1,-193.088,-25.5018)">
        <path d="M897.27,543.365C895.094,543.365 892.19,544.297 890.101,543.512C888.225,542.807 886.655,540.927 887.485,538.823C888.487,536.28 892.457,536.616 894.37,537.418C895.284,537.801 895.896,539.069 896.419,539.836C896.58,540.072 897.766,542.557 896.829,542.557" style="fill:none;stroke-width:3px;stroke:black;"/>
    </g>
    <g transform="matrix(1,0,0,1,-193.088,-25.5018)">
        <path d="M813.408,618.391C808.536,618.391 805.852,610.546 811.639,609.494C812.495,609.339 814.169,609.05 814.99,609.468C819.005,611.515 817.257,617.487 813.84,618.622" style="fill:none;stroke-width:3px;stroke:black;"/>
    </g>
    <g transform="matrix(1,0,0,1,-193.088,-25.5018)">
        <path d="M706.41,651.496C705.661,653.826 704.714,655.473 703.022,657.157C702.288,657.888 701.282,657.919 700.543,658.794C699.564,659.952 699.472,661.395 698.9,662.711C697.961,664.87 696.903,667.065 696.074,669.265C695.751,670.121 695.95,671.325 695.95,672.23C695.95,674.379 695.562,677.969 696.739,679.919C697.497,681.174 698.852,681.772 699.654,682.977C700.806,684.708 703.222,687.47 705.457,687.933C709.768,688.827 713.77,686.965 717.811,685.946C721.228,685.084 724.679,684.919 727.889,683.3C729.414,682.531 730.748,680.894 732.004,679.757C733.917,678.027 736.829,676.038 738.139,673.79C741.235,668.474 740.819,661.557 740.819,655.607C740.819,654.098 741.007,652.233 740.638,650.769C740.443,649.996 739.765,649.261 739.438,648.523C738.11,645.53 735.818,641.849 732.223,641.163C729.579,640.659 725.497,639.674 722.842,640.54C720.871,641.183 719.99,643.192 718.227,644.07C716.001,645.178 713.304,645.174 711.105,646.269C709.173,647.231 708.473,649.612 706.685,650.501" style="fill:none;stroke-width:3px;stroke:black;"/>
    </g>
    <g transform="matrix(1,0,0,1,-193.088,-25.5018)">
        <path d="M380.453,434.613L683.882,371.997L691.928,365.351L695.299,358.271L696.186,352.471L660.1,134.775L654.777,129.016L649.186,127.843L317.395,144.872L313.642,147.84L308.663,154.47L306.937,161.945L307.999,169.534L362.659,420.339L367.633,425.332L372.916,431.166L380.453,434.613Z" style="fill:none;stroke-width:3px;stroke:black;"/>
    </g>
    <g transform="matrix(1,0,0,1,-193.088,-25.5018)">
        <path d="M611.849,411.877L583.852,418.584" style="fill:none;stroke-width:3px;stroke:black;"/>
    </g>
    <g transform="matrix(1,0,0,1,-193.088,-25.5018)">
        <path d="M643.933,394.43L649.155,402.725" style="fill:none;stroke-width:3px;stroke:black;"/>
    </g>
    <g transform="matrix(1,0,0,1,-193.088,-25.5018)">
        <path d="M454.118,444.734L472.241,441.97" style="fill:none;stroke-width:3px;stroke:black;"/>
    </g>
    <g transform="matrix(1,0,0,1,-193.088,-25.5018)">
        <path d="M531.144,566.698C530.771,566.698 530.109,567.56 529.891,567.833C528.847,569.141 527.35,571.447 527.794,573.222C527.894,573.621 529.053,573.861 529.385,573.934C530.899,574.268 532.844,574.672 534.417,574.342C535.175,574.183 535.579,572.445 535.579,571.81C535.579,569.844 534.663,566.608 532.413,566.608" style="fill:none;stroke-width:3px;stroke:black;"/>
    </g>
    <g transform="matrix(1,0,0,1,-193.088,-25.5018)">
        <path d="M662.02,533.473C662.992,533.511 663.895,533.595 664.853,533.595C665.588,533.595 666.748,533.624 667.381,533.203C668.038,532.766 667.845,530.568 667.328,530.128C666.102,529.083 664.511,529.28 663.012,529.28C662.393,529.28 660.354,529.239 660.354,530.228" style="fill:none;stroke-width:3px;stroke:black;"/>
    </g>
    <g transform="matrix(1,0,0,1,-193.088,-25.5018)">
        <path d="M530.419,566.041C529.896,563.2 528.841,561.382 527.488,558.949C525.925,556.14 524.856,552.911 523.383,550.018C521.77,546.849 520.228,543.628 518.618,540.465C517.814,538.886 517.564,536.778 516.422,535.434C516.152,535.116 516.127,533.331 515.865,532.81C514.32,529.735 511.981,527.146 510.432,524.09C508.299,519.88 507.365,515.282 506.123,510.783C504.981,506.647 501.637,503.185 501.637,498.916" style="fill:none;stroke-width:3px;stroke:black;"/>
    </g>
</svg>
