<?xml version="1.0" standalone="no"?>
<!DOCTYPE svg PUBLIC "-//W3C//DTD SVG 1.1//EN" "http://www.w3.org/Graphics/SVG/1.1/DTD/svg11.dtd">
<svg width="100%" height="100%" viewBox="0 0 800 1280" version="1.1" xmlns="http://www.w3.org/2000/svg" xmlns:xlink="http://www.w3.org/1999/xlink" xml:space="preserve" style="fill-rule:evenodd;clip-rule:evenodd;stroke-linecap:round;stroke-linejoin:round;stroke-miterlimit:1.41421;">
    <g transform="matrix(0.740687,6.0817e-33,6.0817e-33,0.740687,-452.162,-546.226)">
        <path d="M1248.46,901.161C1238.5,903.591 1234.41,911.898 1227.59,918.704C1219.13,927.148 1218.4,931.148 1211.8,941.081C1210.95,942.357 1200.31,949.531 1198.99,950.712C1194.49,954.759 1190.16,959.328 1186.42,964.016C1182.7,968.684 1180.51,974.945 1176.67,978.572C1176.41,978.813 1173.56,982.446 1173.65,982.539C1173.98,982.868 1176.09,983.188 1176.73,983.61C1177.76,984.288 1178.96,986.561 1179.77,986.561" style="fill:none;stroke-width:5.63px;stroke:black;"/>
    </g>
    <g transform="matrix(0.740687,6.0817e-33,6.0817e-33,0.740687,-452.162,-546.226)">
        <path d="M1173.47,983.157C1172.7,985.429 1171.44,987.057 1170.4,989.193C1170.02,989.987 1169.65,990.798 1169.41,991.647C1169.05,992.943 1168.81,994.271 1168.62,995.603C1168.09,999.284 1167.99,1005.75 1172.59,1007.12C1173.46,1007.38 1174.37,1007.58 1175.28,1007.58" style="fill:none;stroke-width:5.63px;stroke:black;"/>
    </g>
    <g transform="matrix(0.740687,6.0817e-33,6.0817e-33,0.740687,-452.162,-546.226)">
        <path d="M1175.08,1221.7C1175,1220.81 1174.09,1217.05 1174.57,1216.11C1175.03,1215.21 1176.34,1215.06 1176.99,1214.28C1177.41,1213.77 1177.23,1212.91 1177.67,1212.42C1181.41,1208.24 1183.62,1207.62 1187.96,1204.2C1190.53,1202.17 1192.99,1200 1195.48,1197.86C1196.28,1197.17 1196.81,1196.07 1197.8,1195.71C1199.18,1195.21 1200.76,1195.73 1202.19,1195.43C1204.5,1194.93 1204.34,1191.44 1206.34,1190.44C1209.09,1189.05 1212.15,1188.3 1214.77,1186.7C1216.17,1185.85 1219.57,1181.08 1220.67,1179.97" style="fill:none;stroke-width:5.63px;stroke:black;"/>
    </g>
    <g transform="matrix(0.740687,6.0817e-33,6.0817e-33,0.740687,-452.162,-546.226)">
        <path d="M1225.87,1226.61C1222.45,1229.03 1223.62,1230.2 1220.11,1232.4C1218.26,1233.56 1214.58,1230.41 1213.15,1230.21C1209.81,1229.73 1206.47,1231.57 1203.17,1230.59C1196.36,1228.57 1190.53,1223.94 1184.01,1221.51C1182.67,1221 1176.41,1221.7 1175.08,1221.7" style="fill:none;stroke-width:5.63px;stroke:black;"/>
    </g>
    <g transform="matrix(0.740687,6.0817e-33,6.0817e-33,0.740687,-452.162,-546.226)">
        <path d="M1222.32,1195.6C1219.54,1197.52 1217.09,1199.85 1214.37,1201.76C1212.57,1203.02 1209.57,1203.42 1209.15,1205.93C1208.73,1208.45 1211.07,1209.79 1213.17,1210.76C1216.99,1212.51 1223.48,1215.95 1228.14,1214.29C1232.24,1212.83 1234.99,1207.16 1238.25,1204.55C1239.18,1203.82 1242.21,1202.16 1241.13,1200.55C1238.66,1196.85 1233.89,1194.5 1229.64,1193.8C1228.28,1193.57 1226.84,1193.68 1225.46,1193.68C1225.12,1193.68 1222.91,1193.68 1223.48,1193.68" style="fill:none;stroke-width:5.63px;stroke:black;"/>
    </g>
    <g transform="matrix(0.740687,6.0817e-33,6.0817e-33,0.740687,-452.162,-546.226)">
        <path d="M1205.39,1216.06C1204.78,1217.16 1203.45,1217.29 1203.77,1218.93C1204.12,1220.67 1209.03,1220.59 1209.8,1220.72C1215.6,1221.73 1215.45,1222.17 1221.42,1222.44C1222.64,1222.5 1223.93,1222.76 1225.08,1222.34C1233.72,1219.16 1238.44,1210.01 1244.06,1203.6C1246.3,1201.04 1248.05,1201.28 1249.88,1198.27C1251.34,1195.87 1245.99,1194.14 1245.35,1193.27C1244.96,1192.72 1246.37,1190.45 1246.46,1190.08C1246.87,1188.37 1247.41,1184.16 1246.69,1182.41C1246.38,1181.67 1244.15,1182.28 1243.8,1182.26C1240.51,1182.06 1237.05,1180.69 1233.92,1181.74C1230.79,1182.79 1234.51,1187.7 1232.49,1189.83C1231.91,1190.44 1229.26,1190.38 1228.6,1190.33C1226.31,1190.15 1224,1190.03 1221.74,1189.63C1220.43,1189.4 1219.27,1188.45 1217.94,1188.45" style="fill:none;stroke-width:5.63px;stroke:black;"/>
    </g>
    <g transform="matrix(0.740687,6.0817e-33,6.0817e-33,0.740687,-452.162,-546.226)">
        <path d="M1074.83,1195.06C1076.59,1195.06 1085.77,1188.4 1089.07,1186.74C1098.34,1182.06 1107.53,1176.54 1116.34,1170.98C1119.87,1168.75 1151.24,1148.52 1156.6,1146.36" style="fill:none;stroke-width:5.63px;stroke:black;"/>
    </g>
    <g transform="matrix(0.740687,6.0817e-33,6.0817e-33,0.740687,-452.162,-546.226)">
        <path d="M1156.6,1146.36C1163.74,1148.82 1212,1164.91 1215.08,1164.91" style="fill:none;stroke-width:5.63px;stroke:black;"/>
    </g>
    <g transform="matrix(0.740687,6.0817e-33,6.0817e-33,0.740687,-452.162,-546.226)">
        <path d="M1215.08,1164.91C1207.64,1165.83 1137.9,1211.94 1137.9,1212.61" style="fill:none;stroke-width:5.63px;stroke:black;"/>
    </g>
    <g transform="matrix(0.740687,6.0817e-33,6.0817e-33,0.740687,-452.162,-546.226)">
        <path d="M1137.9,1212.61C1128.19,1212.12 1074.81,1195.79 1074.81,1195.35" style="fill:none;stroke-width:5.63px;stroke:black;"/>
    </g>
    <g transform="matrix(0.740687,6.0817e-33,6.0817e-33,0.740687,-452.162,-546.226)">
        <path d="M1047.14,1189.51C1050.71,1189.51 1120.98,1212.4 1126.98,1214.92C1129.34,1215.91 1176.62,1230.02 1183.67,1231.91C1190.37,1233.7 1207.31,1238.85 1209.19,1239.6C1212.18,1240.78 1217.11,1242.02 1219.97,1242.02" style="fill:none;stroke-width:5.63px;stroke:black;"/>
    </g>
    <g transform="matrix(0.740687,6.0817e-33,6.0817e-33,0.740687,-452.162,-546.226)">
        <path d="M1219.82,1241.83C1222.09,1241.83 1252.74,1229.65 1258.55,1226.99C1267.58,1222.85 1317.76,1203.86 1318.39,1203.44C1318.7,1203.23 1319.86,1203.13 1319.48,1203.13C1316.33,1203.13 1312.67,1200.39 1309.42,1199.95C1303.29,1199.11 1297.71,1196.06 1292,1193.91C1286.77,1191.94 1280.54,1191.53 1275.19,1191.53" style="fill:none;stroke-width:5.63px;stroke:black;"/>
    </g>
    <g transform="matrix(0.740687,6.0817e-33,6.0817e-33,0.740687,-452.162,-546.226)">
        <path d="M1229.11,1181.17C1225.67,1180.86 1222.66,1179.63 1219.4,1179.01C1218.36,1178.81 1216.57,1179.19 1215.8,1178.43C1215.42,1178.05 1215.7,1175.71 1215.7,1175.11C1215.7,1172.4 1215.52,1167.93 1215.52,1165.13" style="fill:none;stroke-width:5.63px;stroke:black;"/>
    </g>
    <g transform="matrix(0.740687,6.0817e-33,6.0817e-33,0.740687,-452.162,-546.226)">
        <path d="M1141.07,1219.03C1142.48,1219.03 1170.03,1201.21 1176.42,1197.17C1182.42,1193.39 1211.81,1175.84 1215.69,1173.35" style="fill:none;stroke-width:5.63px;stroke:black;"/>
    </g>
    <g transform="matrix(0.740687,6.0817e-33,6.0817e-33,0.740687,-452.162,-546.226)">
        <path d="M997.549,1192.57C997.549,1193.03 996.924,1193.3 996.816,1193.73C996.632,1194.45 996.552,1195.13 996.437,1195.91C996.319,1196.7 996.437,1197.59 996.437,1198.4C996.437,1198.43 996.478,1199.15 996.437,1199.17C995.914,1199.4 995.257,1199.36 994.722,1199.62C992.931,1200.51 993.097,1201.9 992.797,1203.68C992.461,1205.67 992.759,1208 992.759,1210.03C992.759,1210.71 992.768,1211.92 993.245,1212.39C993.662,1212.81 994.063,1213.56 994.458,1213.96C994.809,1214.31 996.489,1214.85 996.417,1215.06" style="fill:none;stroke-width:5.63px;stroke:black;"/>
    </g>
    <g transform="matrix(0.740687,6.0817e-33,6.0817e-33,0.740687,-452.162,-546.226)">
        <path d="M996.607,1215.54C996.607,1238.88 996.081,1287.09 1029.9,1292.73" style="fill:none;stroke-width:5.63px;stroke:black;"/>
    </g>
    <g transform="matrix(0.740687,6.0817e-33,6.0817e-33,0.740687,-452.162,-546.226)">
        <path d="M1096.37,1263.33C1095.04,1263.33 1094.12,1263.88 1093.07,1264.61C1091.84,1265.47 1090.51,1266.24 1089.45,1267.3C1086.14,1270.61 1086.42,1275.85 1086.38,1280.06C1086.36,1282.16 1086.55,1284.97 1087.62,1286.87C1090.68,1292.35 1096.79,1294.46 1102.72,1294.71C1108.33,1294.94 1110.19,1287.39 1110.54,1283.11C1111.02,1277.12 1110.31,1269.37 1104.49,1266.05C1101.93,1264.59 1101.62,1264.87 1098.83,1264.08C1098.18,1263.89 1097.59,1263.44 1096.92,1263.44" style="fill:none;stroke-width:5.63px;stroke:black;"/>
    </g>
    <g transform="matrix(0.740687,6.0817e-33,6.0817e-33,0.740687,-452.162,-546.226)">
        <path d="M993.199,1208.65C994.059,1210.14 996.619,1212.86 998.469,1213.21C999.973,1213.5 1001.42,1212.67 1002.81,1212.27C1004.22,1211.87 1005.74,1211.51 1007.18,1211.31C1008.49,1211.13 1009.71,1210.31 1010.96,1209.99C1012.14,1209.69 1013.28,1209.15 1014.49,1209.31C1017.8,1209.72 1029.12,1212.85 1029.36,1213.1C1029.85,1213.58 1029.07,1215.1 1028.58,1215.29C1026.47,1216.12 1024.45,1216.59 1022.82,1218.19C1022.58,1218.43 1021.43,1219.21 1021.59,1219.53C1022.06,1220.47 1023.5,1220.55 1024.42,1220.7C1025.57,1220.89 1027.03,1221.68 1028.03,1222.27C1029.15,1222.92 1030.51,1223.05 1031.73,1223.28C1033.74,1223.66 1036.1,1224.3 1038.22,1223.9C1040.59,1223.44 1042.92,1222.72 1045.19,1221.81C1046.68,1221.21 1047.96,1220.8 1049.28,1219.92C1049.41,1219.84 1050.41,1219.37 1050.41,1219.34" style="fill:none;stroke-width:5.63px;stroke:black;"/>
    </g>
    <g transform="matrix(0.740687,6.0817e-33,6.0817e-33,0.740687,-452.162,-546.226)">
        <path d="M1001.6,1205.71C1001.05,1205.71 1000.5,1205.71 999.949,1205.71C999.712,1205.71 997.023,1206.05 997.956,1206.94C998.373,1207.33 999.385,1207.37 999.912,1207.48C1001.6,1207.85 1003.31,1208.11 1004.86,1207.33C1004.98,1207.26 1005.15,1206.47 1004.95,1206.37C1004.54,1206.16 1002.92,1205.27 1002.48,1205.7" style="fill:none;stroke-width:5.63px;stroke:black;"/>
    </g>
    <g transform="matrix(0.740687,6.0817e-33,6.0817e-33,0.740687,-452.162,-546.226)">
        <path d="M1149.85,1246.81C1147.83,1247.43 1146.33,1248.5 1144.56,1249.56C1143.04,1250.47 1141.12,1250.77 1139.69,1251.84C1139.21,1252.2 1136.98,1253.3 1137.42,1254.18C1137.61,1254.56 1138.45,1254.86 1138.81,1254.95C1140.18,1255.29 1141.72,1255.75 1143.08,1256.29C1144.39,1256.81 1145.61,1257.45 1146.96,1257.79C1147.75,1257.99 1148.87,1258.05 1149.52,1258.38C1151.32,1259.27 1153.17,1259.6 1155.18,1259.26C1156.95,1258.96 1158.09,1257.44 1159.55,1256.58C1162.19,1255.02 1165.94,1253.26 1169.17,1253.92C1170.84,1254.27 1172.26,1255.25 1173.86,1255.7C1175.25,1256.1 1176.66,1256.18 1177.99,1256.71C1179.46,1257.29 1180.71,1258.55 1182.33,1258.85C1183.43,1259.06 1187.71,1258.81 1186.56,1261.07C1186.15,1261.89 1184.69,1262.3 1183.9,1262.62C1182.6,1263.13 1181.6,1264.22 1180.53,1265.02C1179.96,1265.45 1178.69,1266.37 1179.26,1267.23C1179.84,1268.12 1181.06,1267.88 1181.91,1268.02C1183.87,1268.35 1185.91,1267.66 1187.87,1267.98C1189.48,1268.25 1191.99,1268.66 1193.42,1269.37C1193.93,1269.63 1195.23,1269.37 1195.81,1269.37C1197.79,1269.37 1200.06,1269.74 1202.03,1269.41C1203.41,1269.18 1204.77,1268.98 1206.15,1268.75C1207.01,1268.6 1207.73,1267.97 1208.54,1267.71C1209.13,1267.53 1209.88,1267.67 1210.5,1267.67" style="fill:none;stroke-width:5.63px;stroke:black;"/>
    </g>
    <g transform="matrix(0.740687,6.0817e-33,6.0817e-33,0.740687,-452.162,-546.226)">
        <path d="M1200.46,1263.83C1200.2,1263.83 1199.41,1263.89 1199,1263.83C1197.57,1263.59 1192.76,1262.89 1193.45,1265.64C1193.59,1266.22 1195.05,1266.36 1195.5,1266.43C1197.73,1266.73 1199.71,1266.4 1201.65,1265.41C1202.04,1265.22 1201.42,1263.65 1201.01,1263.65" style="fill:none;stroke-width:5.63px;stroke:black;"/>
    </g>
    <g transform="matrix(0.740687,6.0817e-33,6.0817e-33,0.740687,-452.162,-546.226)">
        <path d="M1237.39,1278.2C1239.17,1278.2 1241.4,1278.83 1243.09,1278.4C1247.71,1277.23 1366.03,1221.01 1369.64,1218.88C1374.45,1216.03 1377.07,1209.13 1376.02,1203.65C1375.74,1202.16 1374.26,1201.42 1373.31,1200.48C1371.7,1198.87 1370.87,1197.66 1368.55,1196.74C1367.5,1196.32 1365.26,1194.77 1364.44,1194.77" style="fill:none;stroke-width:5.63px;stroke:black;"/>
    </g>
    <g transform="matrix(0.740687,6.0817e-33,6.0817e-33,0.740687,-452.162,-546.226)">
        <path d="M1361.97,1223.32C1361.24,1242.87 1359.47,1259.04 1358.45,1269.56C1357.96,1274.52 1358.62,1287.35 1351.57,1289.56" style="fill:none;stroke-width:5.63px;stroke:black;"/>
    </g>
    <g transform="matrix(0.740687,6.0817e-33,6.0817e-33,0.740687,-452.162,-546.226)">
        <path d="M1202,1351.38C1204.6,1351.88 1207.12,1352.83 1209.73,1353.36C1216.77,1354.79 1225.95,1356.33 1233.19,1355.88C1243.18,1355.26 1250.58,1347.82 1258.59,1343.18C1273,1334.83 1287.7,1326.54 1302.19,1318.33C1318.77,1308.95 1334.8,1298.59 1351.57,1289.56" style="fill:none;stroke-width:5.63px;stroke:black;"/>
    </g>
    <g transform="matrix(0.740687,6.0817e-33,6.0817e-33,0.740687,-452.162,-546.226)">
        <path d="M1149.11,1339.93C1151.2,1339.93 1175.2,1345.09 1185.47,1347.03C1189.21,1347.74 1202.06,1351.3 1201.63,1351.3" style="fill:none;stroke-width:5.63px;stroke:black;"/>
    </g>
    <g transform="matrix(0.740687,6.0817e-33,6.0817e-33,0.740687,-452.162,-546.226)">
        <path d="M1187.28,1273.72C1188.14,1273.72 1188.89,1274.49 1189.79,1274.62C1192.93,1275.09 1196.1,1275.49 1199.3,1275.49C1200.28,1275.49 1201.61,1275.74 1202.57,1275.49C1204.59,1274.98 1207.19,1273.12 1209.25,1273.55C1214.23,1274.58 1219.26,1275.66 1224.22,1276.69C1226.48,1277.16 1229.03,1277.19 1231.37,1277.19C1232.17,1277.19 1234.01,1276.87 1234.74,1277.24C1235.5,1277.62 1236.65,1278.02 1237.51,1278.02" style="fill:none;stroke-width:5.63px;stroke:black;"/>
    </g>
    <g transform="matrix(0.740687,6.0817e-33,6.0817e-33,0.740687,-452.162,-546.226)">
        <path d="M1178.6,1266.63C1178.6,1289.98 1176.64,1310.55 1186.47,1332.04C1189.24,1338.09 1194.26,1344.31 1200.35,1347.36" style="fill:none;stroke-width:5.63px;stroke:black;"/>
    </g>
    <g transform="matrix(0.740687,6.0817e-33,6.0817e-33,0.740687,-452.162,-546.226)">
        <path d="M1187.9,1273.42C1187.9,1282.8 1185.94,1292 1186.29,1301.39C1186.37,1303.59 1186.42,1305.82 1186.84,1307.99C1187.16,1309.65 1188.51,1311.1 1188.51,1312.79" style="fill:none;stroke-width:5.63px;stroke:black;"/>
    </g>
    <g transform="matrix(0.740687,6.0817e-33,6.0817e-33,0.740687,-452.162,-546.226)">
        <path d="M1137.79,1254.7C1137.79,1263.46 1138.2,1272.15 1138.2,1280.91C1138.2,1283.01 1138.21,1284.92 1138.81,1286.83C1138.88,1287.08 1139.25,1288.17 1139.49,1288.17" style="fill:none;stroke-width:5.63px;stroke:black;"/>
    </g>
    <g transform="matrix(0.740687,6.0817e-33,6.0817e-33,0.740687,-454.387,-547.331)">
        <path d="M1146.35,1280.15C1145.74,1280.15 1145.41,1280.95 1145.07,1281.45C1143.83,1283.23 1143.25,1284.78 1142.93,1286.92C1141.67,1295.36 1143.16,1304.27 1143.54,1312.69C1143.67,1315.54 1143.51,1318.39 1143.54,1321.24C1143.55,1322.2 1143.62,1323.15 1143.64,1324.11C1143.65,1324.54 1143.64,1325.82 1143.64,1325.39" style="fill:none;stroke-width:5.63px;stroke:black;"/>
    </g>
    <g transform="matrix(0.740687,6.0817e-33,6.0817e-33,0.740687,-452.162,-546.226)">
        <path d="M1144.3,1340.71C1145.24,1340.71 1146.51,1340.92 1147.37,1340.49C1148.41,1339.96 1149.63,1339.6 1150.54,1338.85C1154.5,1335.58 1154.31,1319.26 1154.51,1316.55C1155.05,1309.51 1153.82,1280.27 1153.65,1279.15C1153.05,1275.14 1153.1,1270.86 1153.1,1266.73C1153.1,1264.95 1153.1,1260.23 1153.1,1259.65C1153.1,1259.42 1153.18,1258.67 1153.05,1258.92" style="fill:none;stroke-width:5.63px;stroke:black;"/>
    </g>
    <g transform="matrix(0.740687,6.0817e-33,6.0817e-33,0.740687,-452.162,-546.226)">
        <path d="M1021.78,1219.81C1021.78,1224.69 1026.77,1277.51 1027.13,1281.21C1027.33,1283.15 1028.09,1284.97 1028.4,1286.86C1028.73,1288.82 1028.98,1291.18 1030.02,1292.96C1030.9,1294.45 1031.66,1296.18 1032.63,1297.65C1032.98,1298.19 1033.78,1298.9 1033.78,1299.6" style="fill:none;stroke-width:5.63px;stroke:black;"/>
    </g>
    <g transform="matrix(0.740687,6.0817e-33,6.0817e-33,0.740687,-452.162,-546.226)">
        <path d="M1033.78,1299.6C1035.04,1303.08 1043.36,1304.73 1047.94,1306.96C1053.11,1309.47 1058.29,1312.01 1063.7,1313.93C1089.63,1323.16 1115.78,1331.74 1141.91,1340.38C1142.82,1340.68 1144.75,1339.8 1144.75,1340.76" style="fill:none;stroke-width:5.63px;stroke:black;"/>
    </g>
    <g transform="matrix(0.740687,6.0817e-33,6.0817e-33,0.740687,-452.162,-546.226)">
        <path d="M1140.62,1312.96C1119.75,1307.01 1091.51,1299.61 1070.8,1293.14C1064.53,1291.19 1058.45,1288.62 1052.49,1285.85C1049.28,1284.36 1046.43,1282.17 1043.36,1280.39C1041.62,1279.39 1040.09,1277.51 1038.09,1277.51" style="fill:none;stroke-width:5.63px;stroke:black;"/>
    </g>
    <g transform="matrix(0.740687,6.0817e-33,6.0817e-33,0.740687,-452.162,-546.226)">
        <path d="M1028.83,1248.1C1029.32,1245.55 1031.17,1243.93 1033.2,1242.57C1033.6,1242.31 1036.12,1241.61 1036.88,1242.53" style="fill:none;stroke-width:5.63px;stroke:black;"/>
    </g>
    <g transform="matrix(0.740687,6.0817e-33,6.0817e-33,0.740687,-452.162,-546.226)">
        <path d="M1038.09,1277.51C1038.09,1271.62 1036.33,1230.07 1036.33,1224.38" style="fill:none;stroke-width:5.63px;stroke:black;"/>
    </g>
    <g transform="matrix(0.740687,6.0817e-33,6.0817e-33,0.740687,-452.162,-546.226)">
        <path d="M1294.13,1255.14C1294.13,1260.84 1293.61,1266.53 1293.28,1272.21C1293.21,1273.45 1292.23,1277.29 1293.75,1278.47C1295.48,1279.81 1298.52,1277.37 1299.88,1276.92C1304.96,1275.28 1313.53,1274.9 1315.32,1268.48C1315.69,1267.14 1316.03,1265.77 1316.16,1264.38C1316.47,1261.13 1316.59,1257.87 1316.62,1254.61C1316.65,1251.34 1316.35,1248.08 1316.35,1244.81" style="fill:none;stroke-width:5.63px;stroke:black;"/>
    </g>
    <g transform="matrix(0.740687,6.0817e-33,6.0817e-33,0.740687,-452.162,-546.226)">
        <path d="M1051.32,1219.03C1053.23,1219.03 1055.09,1218.44 1057.07,1218.69C1062.69,1219.39 1135.39,1243.1 1139.99,1244.4C1142.2,1245.03 1144.31,1246.08 1146.53,1246.63C1146.77,1246.69 1148.49,1247.1 1148.49,1246.88" style="fill:none;stroke-width:5.63px;stroke:black;"/>
    </g>
    <g transform="matrix(0.740687,6.0817e-33,6.0817e-33,0.740687,-452.162,-546.226)">
        <path d="M1230.07,1238.34C1232.92,1234.96 1272.93,1194.51 1275.14,1192.27C1275.94,1191.46 1275.26,1181 1274.45,1180.2C1274.09,1179.83 1272.06,1180.12 1271.53,1180.12C1269.37,1180.12 1264.71,1180.89 1263.07,1179.26C1261.98,1178.17 1262.93,1172.75 1262.93,1171.31C1262.93,1171.02 1263.15,1169.46 1262.93,1169.25C1262.65,1168.97 1253.67,1165.08 1251.7,1165.85C1249.89,1166.55 1247.83,1168.79 1246.52,1170.1C1243.87,1172.77 1240.58,1174.85 1237.25,1176.51C1235.25,1177.51 1228.37,1181.17 1229.11,1181.17" style="fill:none;stroke-width:5.63px;stroke:black;"/>
    </g>
    <g transform="matrix(0.740687,6.0817e-33,6.0817e-33,0.740687,-452.162,-546.226)">
        <path d="M1047.26,1189.24C1052.29,1189.24 1123.36,1163.44 1129.1,1162.82" style="fill:none;stroke-width:5.63px;stroke:black;"/>
    </g>
    <g transform="matrix(0.740687,6.0817e-33,6.0817e-33,0.740687,-452.162,-546.226)">
        <path d="M997.64,1193.1C996.985,1192.13 998.279,1190.98 998.783,1189.96C999.916,1187.66 1026.98,1178.92 1035.7,1175.05C1041.7,1172.38 1064.59,1164.07 1070,1162.17C1084.37,1157.12 1124.46,1144.12 1127.8,1143.28C1132.42,1142.11 1138.95,1142.04 1143.53,1142.9C1147.66,1143.68 1151,1147.2 1154.7,1147.2" style="fill:none;stroke-width:5.63px;stroke:black;"/>
    </g>
    <g transform="matrix(0.740687,6.0817e-33,6.0817e-33,0.740687,-452.162,-546.226)">
        <path d="M1229.64,1261.84C1241.96,1261.84 1251.12,1254.45 1262.16,1249.46C1281.28,1240.81 1352,1211.69 1357.8,1205.85C1359.01,1204.62 1361.56,1202.5 1361.01,1200.32C1360.4,1197.9 1340.87,1193.56 1337.37,1192.97C1321.59,1190.32 1306.31,1184.62 1290.59,1181.98C1281.46,1180.44 1271.26,1175.75 1262.83,1175.75" style="fill:none;stroke-width:5.63px;stroke:black;"/>
    </g>
    <g transform="matrix(0.740687,6.0817e-33,6.0817e-33,0.740687,-452.162,-546.226)">
        <path d="M716.749,1576.73C716.749,1557.59 689.41,1556.4 686.723,1545.72C685.716,1541.72 691.812,1486.39 693.416,1481.69C697.067,1470.98 696.814,1453.67 697.797,1442.35C700.25,1414.09 704.497,1389.14 707.988,1361.05C709.203,1351.27 710.653,1314.8 718.793,1309.39C733.385,1299.68 981.201,1210.35 990.726,1210.35" style="fill:none;stroke-width:5.63px;stroke:black;"/>
    </g>
    <g transform="matrix(0.740687,6.0817e-33,6.0817e-33,0.740687,-452.162,-546.226)">
        <path d="M765.894,1684.54C752.783,1684.54 729.924,1694.72 717.667,1689.14C707.776,1684.63 709.722,1642.02 710.733,1634.56C717.805,1582.31 720.955,1528.92 720.955,1475.75" style="fill:none;stroke-width:5.63px;stroke:black;"/>
    </g>
    <g transform="matrix(0.740687,6.0817e-33,6.0817e-33,0.740687,-452.162,-546.226)">
        <path d="M746.783,1512.93C746.783,1530.39 745.595,1548.48 746.783,1565.91C748.596,1592.53 755.956,1618.29 758.737,1644.54C760.253,1658.84 758.647,1674.47 767.388,1686.13C779.778,1702.64 835.157,1703.65 855.144,1708.63C879.293,1714.65 897.177,1735.06 916.679,1748.98C926.792,1756.2 938.444,1756.69 949.372,1764.22C973.699,1780.99 997.705,1797.66 1023.06,1812.5C1035.91,1820.03 1030.37,1841.17 1041.34,1849.27C1072.25,1872.11 1127.79,1886.71 1165.66,1886.71" style="fill:none;stroke-width:5.63px;stroke:black;"/>
    </g>
    <g transform="matrix(0.740687,6.0817e-33,6.0817e-33,0.740687,-452.162,-546.226)">
        <path d="M1287.65,2084.26C1274.29,2075.71 1258.01,2067.82 1246.66,2056.47C1234.7,2044.5 1219.62,2031.1 1205.17,2022C1189.93,2012.41 1164.96,2006.48 1156.38,1989.31C1154.27,1985.1 1155.3,1976.4 1154.08,1971.54C1150.51,1957.3 1145.71,1941.47 1148.2,1926.5C1150.92,1910.08 1166.27,1890.45 1171.39,1873.34C1183.17,1833.96 1188.07,1790.53 1190.68,1749.67C1193.57,1704.47 1209.32,1660.37 1218.96,1616.54" style="fill:none;stroke-width:5.63px;stroke:black;"/>
    </g>
    <g transform="matrix(0.740687,6.0817e-33,6.0817e-33,0.740687,-452.162,-546.226)">
        <path d="M1266.63,1549.61C1274.09,1562.95 1281.25,1608.88 1284.1,1642.65C1287.19,1679.19 1279.17,1717.44 1284.1,1753.75C1289.18,1791.13 1293.02,1832.72 1289.2,1870.6C1287.83,1884.27 1282.8,1897.41 1281.91,1911.16C1281.02,1924.87 1280.99,1938.61 1280.13,1952.34C1278.46,1979.03 1277.22,2013.99 1280.86,2040.75C1282.82,2055.23 1287.75,2069.54 1287.75,2084.33" style="fill:none;stroke-width:5.63px;stroke:black;"/>
    </g>
    <g transform="matrix(0.740687,6.0817e-33,6.0817e-33,0.740687,-452.162,-546.226)">
        <path d="M1278.62,1995.72C1290.43,1989.24 1316.12,1981.4 1324.71,1969.87C1338.8,1950.95 1322.99,1918.32 1336.82,1904.28C1346.92,1894.03 1375.25,1883.7 1388.62,1875.81C1448.92,1840.19 1525.83,1788.41 1573.01,1740.03C1576.27,1736.69 1579.81,1739.64 1580.43,1739.01C1580.57,1738.87 1593.07,1553.36 1593.07,1464.86C1593.07,1373.19 1591.19,1327.47 1570.04,1320.36C1550.26,1313.72 1381.85,1269.33 1359.82,1261.71" style="fill:none;stroke-width:5.63px;stroke:black;"/>
    </g>
    <g transform="matrix(0.740687,6.0817e-33,6.0817e-33,0.740687,-452.162,-546.226)">
        <path d="M767.085,1332.38C797.186,1332.38 1108.93,1460.26 1191.49,1493.17C1230.03,1508.53 1238.55,1512.58 1245.56,1512.1C1290.53,1509 1496.19,1365.25 1503.24,1362.42" style="fill:none;stroke-width:5.63px;stroke:black;"/>
    </g>
    <g transform="matrix(0.740687,6.0817e-33,6.0817e-33,0.740687,-452.162,-546.226)">
        <path d="M764.032,1684.96C769.589,1737.63 788.795,1940.73 795.07,1984.86C796.616,1995.74 802.665,2034.14 810.932,2039.75C818.041,2044.57 1058.23,2201.53 1133.1,2243.98C1166.04,2262.66 1200.95,2286.06 1233.59,2296.22C1234.22,2296.42 1240.06,2298.45 1240.42,2298.08C1243.26,2295.2 1243.64,2219.89 1243.5,2153.16C1243.4,2108.85 1243.03,2066.27 1243.03,2053.25" style="fill:none;stroke-width:5.63px;stroke:black;"/>
    </g>
    <g transform="matrix(0.740687,6.0817e-33,6.0817e-33,0.740687,-452.162,-546.226)">
        <path d="M1239.85,2297.9C1261.78,2277.85 1457.98,2067.69 1483.92,2041.17C1484.44,2040.63 1553.31,1972.44 1554.31,1966.87C1560.44,1932.55 1564.22,1759.07 1565.51,1747.78" style="fill:none;stroke-width:5.63px;stroke:black;"/>
    </g>
    <g transform="matrix(0.740687,6.0817e-33,6.0817e-33,0.740687,-442.095,-559.435)">
        <path d="M1505.69,2024C1507.59,2027.31 1511.16,2031.74 1514.58,2032.45C1549.73,2039.77 1547.84,2007.5 1540.38,1985.71" style="fill:none;stroke-width:5.63px;stroke:black;"/>
    </g>
    <g transform="matrix(0.740687,6.0817e-33,6.0817e-33,0.740687,-452.162,-546.226)">
        <path d="M1263.2,1171.32C1269.53,1171.32 1280.51,1173.56 1286.79,1174.18C1288.85,1174.39 1295.52,1175.13 1295.52,1175.1C1295.95,1173.52 1297.81,1171.76 1299.2,1170.88C1300.52,1170.04 1301.78,1169.73 1303.32,1169.34C1304.03,1169.16 1306.7,1170.27 1307.19,1169.78C1307.26,1169.71 1290.39,1164.19 1285.56,1163.25C1283.95,1162.93 1260.31,1156.6 1252.3,1154.61C1247.78,1153.49 1227.1,1149.15 1223.69,1147.82C1216.52,1145.03 1162.87,1131.74 1160.51,1131.45C1160.2,1131.41 1156.74,1129.01 1156.53,1128.81C1152.94,1125.21 1150.79,1121.31 1150.79,1116.02" style="fill:none;stroke-width:5.63px;stroke:black;"/>
    </g>
    <g transform="matrix(0.740687,6.0817e-33,6.0817e-33,0.740687,-452.162,-546.226)">
        <path d="M1307.27,1169.96C1309.55,1170.7 1320.49,1173.72 1323.11,1174.37C1327.03,1175.35 1368.28,1183.41 1372.04,1183.71C1376.18,1184.03 1383.32,1184.69 1387.4,1183.33C1392.27,1181.69 1400.21,1178.31 1403.16,1174.16C1405.35,1171.08 1409.07,1165.66 1410.12,1162.13" style="fill:none;stroke-width:5.63px;stroke:black;"/>
    </g>
    <g transform="matrix(0.740687,6.0817e-33,6.0817e-33,0.740687,-452.162,-546.226)">
        <path d="M1364.46,1194.83C1364.1,1192.01 1364.8,1188.83 1366.84,1186.77C1367.43,1186.17 1368.3,1185.15 1368.66,1184.42C1368.83,1184.07 1368.98,1182.89 1368.98,1183.29" style="fill:none;stroke-width:5.63px;stroke:black;"/>
    </g>
    <g transform="matrix(0.740687,6.0817e-33,6.0817e-33,0.740687,-452.162,-546.226)">
        <path d="M1410.12,1162.13C1412.15,1155.58 1415.36,1134.8 1421.18,1116.94C1423.8,1108.9 1428.05,1093.9 1430.28,1085.77C1433.13,1075.38 1448.52,1017.7 1452.67,1002.57C1457.17,986.153 1463.66,962.775 1460.04,945.459C1458.71,939.056 1447.16,934.297 1442.09,933.659C1436.09,932.905 1430.21,931.355 1424.18,930.66C1416.15,929.733 1384.2,926.415 1376.17,925.609C1354.86,923.468 1226.38,903.243 1216.08,905.58C1200.22,909.178 1197.14,915.312 1193.02,929.66C1190.67,937.838 1179.97,985.801 1178.86,994.541C1178.11,1000.49 1167.63,1039.26 1166.03,1052.03C1164.27,1065.97 1153.58,1102.19 1150.79,1116.02" style="fill:none;stroke-width:5.63px;stroke:black;"/>
    </g>
    <g transform="matrix(0.740687,6.0817e-33,6.0817e-33,0.740687,-452.162,-546.226)">
        <path d="M1219.62,905.431C1219.62,900.599 1220.32,891.899 1226.43,890.869C1228.23,890.565 1232.85,891.625 1234.41,890.836C1236.61,889.719 1239.32,888.209 1241.8,890.298C1246.09,893.901 1247.33,900.649 1250.13,903.447C1250.36,903.678 1256.41,907.213 1256.63,906.988C1260.13,903.386 1259.55,893.341 1257.85,889.005C1257.57,888.295 1254.8,888.384 1254.41,887.755C1253.79,886.775 1253.63,882.105 1254.63,881.602C1256.58,880.621 1262.51,881.356 1264.01,879.834C1265.5,878.32 1259.39,872.435 1260.96,870.839C1261.78,870.005 1267.48,870.839 1268.65,870.839C1273.85,870.839 1274.62,870.905 1279.88,870.905C1281.34,870.905 1290.4,871.333 1291.97,872.118C1293.39,872.831 1290.75,877.662 1290.36,878.368C1286.66,884.978 1283.25,889.951 1281.32,897.241C1280.83,899.081 1283.92,899.014 1284.72,900.61C1285.18,901.538 1287.2,907.744 1287.2,908.82C1287.2,909.471 1287.93,913.702 1287.93,913.052" style="fill:none;stroke-width:5.63px;stroke:black;"/>
    </g>
    <g transform="matrix(0.740687,6.0817e-33,6.0817e-33,0.740687,-452.162,-546.226)">
        <path d="M1377.53,925.62C1384.05,926.219 1375.83,902.618 1390.18,906.206C1391.13,906.444 1393.3,911.853 1393.3,911.436C1393.3,909.189 1403.32,909.006 1404.82,910.503C1407.61,913.296 1409.31,930.933 1414.86,925.297C1415.97,924.168 1417.01,921.498 1416.58,919.758C1416.15,918.091 1414.89,917.496 1414.42,915.69C1413.6,912.585 1419.27,911.399 1418.14,908.136C1417.52,906.355 1414.16,904.117 1414.61,902.306C1415.72,897.826 1417.6,899.714 1420.03,899.714C1420.61,899.714 1423.63,899.824 1423.74,899.241C1424.04,897.628 1423.81,890.923 1424.96,889.748C1429.46,885.188 1450.56,889.683 1452.32,890.563C1456.57,892.692 1453.6,895.805 1452.48,898.772C1449.77,905.971 1446.75,908.923 1443.44,915.431C1442.87,916.551 1444.29,922.669 1444.56,923.746C1445.48,927.395 1444.06,931.279 1444.06,933.78" style="fill:none;stroke-width:5.63px;stroke:black;"/>
    </g>
    <g transform="matrix(0.740687,6.0817e-33,6.0817e-33,0.740687,-452.162,-546.226)">
        <path d="M1167.1,1121.43C1167.1,1121.43 1196.83,1128.24 1209.07,1131.81C1223.23,1135.94 1265.27,1143.88 1271.34,1145.97C1275.6,1147.43 1375.34,1169.68 1381.94,1169.68C1383.24,1169.68 1385.59,1169.95 1387.51,1168.88C1389.32,1167.87 1390.71,1165.54 1391.81,1164.77C1395.95,1161.9 1411.23,1095.67 1414.55,1081.96C1420.96,1055.46 1435.87,1006.6 1441.97,979.708C1445.37,964.709 1447.06,955.376 1440.8,950.351C1435.62,946.2 1410.68,946.055 1400.22,944.303C1381.85,941.228 1226.55,919.819 1218.55,919.847C1212.2,919.87 1208.71,922.086 1205.93,930.957C1202.37,942.3 1169.13,1075.66 1161.71,1110.79C1161.32,1112.68 1160.39,1115.96 1161.58,1117.76C1163.17,1120.19 1167.1,1120.93 1167.1,1121.43Z" style="fill:none;stroke-width:5.63px;stroke:black;"/>
    </g>
    <g transform="matrix(0.740687,6.0817e-33,6.0817e-33,0.740687,-452.162,-546.226)">
        <path d="M1244.16,1172.62C1238.81,1172.62 1215.55,1166.38 1215.79,1166.62" style="fill:none;stroke-width:5.63px;stroke:black;"/>
    </g>
    <g transform="matrix(0.740687,6.0817e-33,6.0817e-33,0.740687,-452.162,-546.226)">
        <path d="M997.64,1193.1C998.754,1193.81 1039.8,1206.39 1046.06,1208.35C1048.71,1209.18 1083.03,1218.11 1091.55,1220.77C1091.94,1220.89 1140.6,1235.87 1144.37,1237.15C1145.74,1237.62 1200.04,1254.53 1204.3,1255.24C1205.97,1255.52 1221.15,1260.47 1222.68,1260.94C1223.94,1261.34 1228.26,1261.9 1229.64,1261.84" style="fill:none;stroke-width:5.63px;stroke:black;"/>
    </g>
    <g transform="matrix(0.740687,6.0817e-33,6.0817e-33,0.740687,-459.189,-555.498)">
        <path d="M1194.57,2324.44C1194.82,2324.56 1213.73,2334.38 1214.32,2334.09C1216.04,2333.21 1225.3,2313.28 1229.52,2304.29" style="fill:none;stroke-width:5.63px;stroke:black;"/>
    </g>
    <g transform="matrix(0.740687,6.0817e-33,6.0817e-33,0.740687,-452.162,-546.226)">
        <path d="M846.394,2063.58C844.374,2065.92 841.25,2074.23 840.397,2077.6C839.098,2082.72 840.665,2090.18 843.288,2094.66C844.349,2096.47 846.876,2098.39 848.448,2099.52C849.559,2100.31 838.901,2094.52 838.1,2093.99C828.149,2087.34 826.969,2076.36 829.707,2065.34C830.101,2063.76 831.6,2058.42 832.547,2054.96" style="fill:none;stroke-width:5.63px;stroke:black;"/>
    </g>
    <g transform="matrix(0.740687,6.0817e-33,6.0817e-33,0.740687,-452.162,-546.226)">
        <path d="M848.448,2099.52C858.72,2099.52 863.011,2100.93 869.46,2094.11C872.179,2091.23 873.119,2087.16 873.983,2083.68C874.411,2081.95 874.239,2079.59 874.239,2081.37" style="fill:none;stroke-width:5.63px;stroke:black;"/>
    </g>
    <g transform="matrix(0.740687,6.0817e-33,6.0817e-33,0.740687,-452.162,-546.226)">
        <path d="M1185.19,2311.73C1185.19,2309.22 1187.19,2306.35 1188.31,2304.15C1190.4,2300.04 1192.06,2295.67 1193.69,2291.37C1194.58,2289.01 1199.6,2281.42 1199.6,2281.93" style="fill:none;stroke-width:5.63px;stroke:black;"/>
    </g>
    <g transform="matrix(0.740687,6.0817e-33,6.0817e-33,0.740687,-452.162,-546.226)">
        <path d="M1202.13,2320.36C1198.08,2324.05 1198.91,2324.62 1197.78,2330.01C1197.18,2332.82 1198.48,2340.89 1200.22,2343.87C1210.74,2361.83 1233.2,2357.82 1241.62,2340.71C1245.71,2332.42 1249.63,2316.24 1246.43,2306.98C1245.16,2303.31 1243.92,2299.28 1239.85,2297.9" style="fill:none;stroke-width:5.63px;stroke:black;"/>
    </g>
    <g transform="matrix(0.740687,6.0817e-33,6.0817e-33,0.740687,-452.162,-546.226)">
        <path d="M1187.35,2313.74C1187.35,2317.47 1184.71,2326.9 1186.56,2330.59C1188.59,2334.66 1188.39,2339.2 1190.83,2343.14C1194.77,2349.5 1205.81,2355.36 1214.88,2355.36" style="fill:none;stroke-width:5.63px;stroke:black;"/>
    </g>
    <g transform="matrix(0.740687,6.0817e-33,6.0817e-33,0.740687,-452.162,-546.226)">
        <path d="M1176.4,1135.62C1176.4,1135.94 1176.65,1137.83 1176.4,1138.08C1176.14,1138.33 1174.5,1138.08 1174.07,1138.08C1171.91,1138.08 1170.27,1138.09 1168.33,1138.69C1166.9,1139.13 1166.34,1140.52 1165.72,1141.74C1164.57,1144.03 1163.37,1146.12 1163.37,1148.55" style="fill:none;stroke-width:5.63px;stroke:black;"/>
    </g>
    <g transform="matrix(0.740687,6.0817e-33,6.0817e-33,0.740687,-452.162,-546.226)">
        <path d="M1234.52,1150.63C1234.52,1151.75 1233.46,1153.05 1232.91,1153.99C1231.1,1157.05 1229.09,1158.68 1229.09,1162.33" style="fill:none;stroke-width:5.63px;stroke:black;"/>
    </g>
    <g transform="matrix(0.740687,6.0817e-33,6.0817e-33,0.740687,-452.162,-546.226)">
        <path d="M1248.68,1167.84C1244.25,1166.76 1241.69,1165.91 1237.17,1165.15C1235.8,1164.92 1229.66,1162.83 1229.57,1162.83" style="fill:none;stroke-width:5.63px;stroke:black;"/>
    </g>
</svg>
